<?xml version="1.0" encoding="UTF-8"?>
<svg version="1.1" xmlns="http://www.w3.org/2000/svg" viewBox="0 0 300 200" width="300" height="200">
<path d="M0 0 C3.21246342 1.06126024 4.81755632 2.52423172 7.25 4.8671875 C11.5862642 8.92803167 16.05347492 12.71881865 20.671875 16.453125 C24.62638063 19.68577643 28.5110453 22.99825831 32.38598633 26.32568359 C35.32277876 28.86152849 35.32277876 28.86152849 38.625 30.8671875 C38.955 27.5671875 39.285 24.2671875 39.625 20.8671875 C46.555 20.8671875 53.485 20.8671875 60.625 20.8671875 C60.56957031 22.92839844 60.51414063 24.98960938 60.45703125 27.11328125 C60.45007034 29.13890629 60.44352021 31.16455349 60.44799805 33.19018555 C60.44107816 34.58397867 60.41483129 35.97782897 60.36791992 37.37084961 C60.053525 46.08050708 60.053525 46.08050708 63.90771484 53.63720703 C66.71283776 55.92497794 69.58331007 57.90873907 72.625 59.8671875 C73.89650556 60.90385517 75.15031287 61.96310714 76.375 63.0546875 C76.91455322 63.52076416 77.45410645 63.98684082 78.01000977 64.46704102 C78.54295654 64.92908936 79.07590332 65.3911377 79.625 65.8671875 C84.63683755 70.18802077 89.71042574 74.41820136 94.84765625 78.58984375 C97.96896301 81.14922749 101.0495228 83.75309954 104.125 86.3671875 C108.21771648 89.84566367 112.33628546 93.28597497 116.5 96.6796875 C118.20840806 98.07542937 119.91674781 99.47125487 121.625 100.8671875 C122.36363281 101.46789062 123.10226562 102.06859375 123.86328125 102.6875 C125.48867458 104.03602272 127.06383956 105.44479688 128.625 106.8671875 C128.625 107.5271875 128.625 108.1871875 128.625 108.8671875 C105.72711442 110.33500068 105.72711442 110.33500068 99.05859375 107.1796875 C96.64457791 104.88895748 94.66766079 102.49060479 92.625 99.8671875 C90.89168677 98.36445264 89.11846842 96.9067775 87.3125 95.4921875 C83.20526647 92.16700831 79.15011721 88.79061193 75.125 85.3671875 C71.17861117 82.01258345 67.20857507 78.69496578 63.1875 75.4296875 C58.32450576 71.47275332 53.56799797 67.40282808 48.81884766 63.31103516 C44.40191282 59.51317249 39.91546003 55.81038709 35.39453125 52.13671875 C30.65139032 48.24988535 25.98607206 44.2713214 21.31298828 40.30078125 C18.44060943 37.8612949 15.56401164 35.42679784 12.6875 32.9921875 C12.16816895 32.55213379 11.64883789 32.11208008 11.11376953 31.65869141 C7.63191533 28.71060938 4.13281227 25.78426536 0.625 22.8671875 C-2.80173696 24.39457834 -5.43341282 26.41049921 -8.3125 28.8046875 C-9.28316406 29.61035156 -10.25382812 30.41601562 -11.25390625 31.24609375 C-12.29497029 32.11895811 -13.33532288 32.99267163 -14.375 33.8671875 C-14.89304199 34.30272949 -15.41108398 34.73827148 -15.94482422 35.18701172 C-19.76407913 38.40291627 -23.57063192 41.63369763 -27.375 44.8671875 C-34.39014804 50.82965213 -41.43147291 56.74796689 -48.5703125 62.5625 C-53.89112696 66.93475701 -59.12766336 71.40725894 -64.375 75.8671875 C-71.37678056 81.81829056 -78.40158015 87.72924459 -85.53125 93.52734375 C-89.40954816 96.718416 -93.23435656 99.9712776 -97.04882812 103.23828125 C-101.70348577 107.20656435 -104.17197266 109.12282679 -110.35546875 109.0625 C-111.51884766 109.05605469 -112.68222656 109.04960938 -113.88085938 109.04296875 C-115.70327148 109.01783203 -115.70327148 109.01783203 -117.5625 108.9921875 C-118.78904297 108.98316406 -120.01558594 108.97414063 -121.27929688 108.96484375 C-124.31139295 108.94124767 -127.34309938 108.90832591 -130.375 108.8671875 C-130.375 108.2071875 -130.375 107.5471875 -130.375 106.8671875 C-128.88761765 105.51336601 -127.33069449 104.23578864 -125.75 102.9921875 C-121.21422617 99.36590045 -116.76844443 95.66446065 -112.375 91.8671875 C-107.35978524 87.5446632 -102.28321941 83.31237311 -97.14453125 79.13671875 C-91.83058334 74.78212956 -86.60973234 70.31640315 -81.375 65.8671875 C-74.36265442 59.9071048 -67.32539195 53.98959955 -60.1875 48.1796875 C-56.4940609 45.1428598 -52.85201514 42.04757795 -49.20874023 38.95092773 C-45.81545891 36.0717343 -42.39232214 33.23514513 -38.9375 30.4296875 C-34.07974628 26.47701744 -29.32817233 22.41170681 -24.58422852 18.32421875 C-20.02053096 14.4000803 -15.3997778 10.55960394 -10.7109375 6.78515625 C-8.73582361 5.16344903 -6.87322098 3.47753181 -5 1.7421875 C-2.375 -0.1328125 -2.375 -0.1328125 0 0 Z " fill="#5494C3" transform="translate(150.375,10.1328125)"/>
<path d="M0 0 C18.15 0 36.3 0 55 0 C55 18.15 55 36.3 55 55 C36.85 55 18.7 55 0 55 C0 50.05 0 45.1 0 40 C-0.99 40.495 -0.99 40.495 -2 41 C-1.938125 42.258125 -1.87625 43.51625 -1.8125 44.8125 C-1.83478885 47.33113951 -1.86497803 48.72995606 -3 51 C-6.27967758 52.63983879 -9.37138689 52.17845638 -13 52 C-13.33 51.34 -13.66 50.68 -14 50 C-16.52733235 49.34444881 -16.52733235 49.34444881 -19 49 C-19.103125 48.360625 -19.20625 47.72125 -19.3125 47.0625 C-19.6528125 46.0415625 -19.6528125 46.0415625 -20 45 C-20.99 44.67 -21.98 44.34 -23 44 C-24.12353516 38.81445312 -24.12353516 38.81445312 -24 36 C-21.49501158 33.0529548 -20.04728323 32.09309184 -16.1875 31.75 C-15.465625 31.8325 -14.74375 31.915 -14 32 C-14 30.02 -14 28.04 -14 26 C-13.01 25.67 -12.02 25.34 -11 25 C-11 25.99 -11 26.98 -11 28 C-10.46375 27.7525 -9.9275 27.505 -9.375 27.25 C-7 27 -7 27 -1 31 C-0.67 20.77 -0.34 10.54 0 0 Z M-21 37 C-21 37.66 -21 38.32 -21 39 C-16.74268432 39.40749675 -16.74268432 39.40749675 -13.125 37.5 C-12.75375 37.005 -12.3825 36.51 -12 36 C-13.04579619 34.73778302 -13.04579619 34.73778302 -15.375 34.8125 C-18.23444863 34.79951452 -18.23444863 34.79951452 -21 37 Z M-8 40 C-8 42.64 -8 45.28 -8 48 C-7.01 48 -6.02 48 -5 48 C-4.79029441 43.85906302 -4.79029441 43.85906302 -6 40 C-6.66 40 -7.32 40 -8 40 Z M-12 40 C-13.32 41.32 -14.64 42.64 -16 44 C-15.67 44.99 -15.34 45.98 -15 47 C-13.68 45.68 -12.36 44.36 -11 43 C-11.33 42.01 -11.66 41.02 -12 40 Z " fill="none" transform="translate(121,64)"/>
<path d="M0 0 C0.99 0 1.98 0 3 0 C3 0.99 3 1.98 3 3 C3.66 3 4.32 3 5 3 C5 2.34 5 1.68 5 1 C6.32 1.66 7.64 2.32 9 3 C9 3.66 9 4.32 9 5 C9.66 5 10.32 5 11 5 C10.67 6.65 10.34 8.3 10 10 C8.35 9.01 6.7 8.02 5 7 C6.65 8.98 8.3 10.96 10 13 C10.61875 12.34 11.2375 11.68 11.875 11 C14 9 14 9 16 9 C16 8.34 16 7.68 16 7 C16.66 7 17.32 7 18 7 C18 6.34 18 5.68 18 5 C17.34 5 16.68 5 16 5 C16.33 4.01 16.66 3.02 17 2 C17.99 2.99 18.98 3.98 20 5 C19.67 5.598125 19.34 6.19625 19 6.8125 C17.79212012 9.05386471 17.79212012 9.05386471 18 12 C21.10551666 12 22.35261084 11.4606285 25 10 C26.37562854 11.28965176 27.70766393 12.62689293 29 14 C29 14.66 29 15.32 29 16 C28.34 16 27.68 16 27 16 C27 16.66 27 17.32 27 18 C26.34 18 25.68 18 25 18 C25 18.66 25 19.32 25 20 C24.34 20 23.68 20 23 20 C23.66 20.78375 24.32 21.5675 25 22.375 C27 25 27 25 27 27 C26.34 27 25.68 27 25 27 C25 26.34 25 25.68 25 25 C24.34 25 23.68 25 23 25 C23 24.34 23 23.68 23 23 C22.01 22.67 21.02 22.34 20 22 C18.64172029 20.35360035 17.30745749 18.68704193 16 17 C15.34 16.67 14.68 16.34 14 16 C14 16.66 14 17.32 14 18 C13.34 18 12.68 18 12 18 C12 17.34 12 16.68 12 16 C11.443125 16.515625 10.88625 17.03125 10.3125 17.5625 C8 19 8 19 5.25 18.6875 C4.5075 18.460625 3.765 18.23375 3 18 C3 17.34 3 16.68 3 16 C2.34 16 1.68 16 1 16 C1.33 15.01 1.66 14.02 2 13 C1.34 12.34 0.68 11.68 0 11 C-0.66 11 -1.32 11 -2 11 C-2.99 12.485 -2.99 12.485 -4 14 C-2.68 14 -1.36 14 0 14 C-0.54723683 17.37462715 -1.0549 19.08235 -3 22 C-2.01 22.66 -1.02 23.32 0 24 C0.45375 23.505 0.9075 23.01 1.375 22.5 C3 21 3 21 5 21 C5 22.98 5 24.96 5 27 C5.66 27 6.32 27 7 27 C7 27.66 7 28.32 7 29 C6.34 29 5.68 29 5 29 C6.32 30.32 7.64 31.64 9 33 C9.66 32.01 10.32 31.02 11 30 C10.67 29.01 10.34 28.02 10 27 C10.66 27 11.32 27 12 27 C12 26.34 12 25.68 12 25 C11.01 25 10.02 25 9 25 C10 22 10 22 11 20 C11.99 20 12.98 20 14 20 C14 20.99 14 21.98 14 23 C14.66 23 15.32 23 16 23 C16 23.66 16 24.32 16 25 C16.66 25 17.32 25 18 25 C18 25.66 18 26.32 18 27 C18.99 27.33 19.98 27.66 21 28 C21.66 28.33 22.32 28.66 23 29 C23 29.66 23 30.32 23 31 C23.66 31 24.32 31 25 31 C25.33 30.34 25.66 29.68 26 29 C28.475 30.98 28.475 30.98 31 33 C30.01 31.68 29.02 30.36 28 29 C28.66 27.68 29.32 26.36 30 25 C30.66 25.66 31.32 26.32 32 27 C31.34 27 30.68 27 30 27 C30 27.66 30 28.32 30 29 C30.66 29 31.32 29 32 29 C32 29.66 32 30.32 32 31 C32.66 31 33.32 31 34 31 C34 30.34 34 29.68 34 29 C34.66 29 35.32 29 36 29 C36 28.34 36 27.68 36 27 C35.34 27 34.68 27 34 27 C34 26.34 34 25.68 34 25 C34.66 25 35.32 25 36 25 C36 24.34 36 23.68 36 23 C35.34 23 34.68 23 34 23 C34 22.34 34 21.68 34 21 C36.62187494 22.04874998 37.79371361 22.64931313 39.25 25.125 C39.4975 25.74375 39.745 26.3625 40 27 C38.69791667 28.46484375 37.39583333 29.9296875 36.09375 31.39453125 C34.71848759 33.089448 34.71848759 33.089448 35 36 C30.86956522 40.56521739 30.86956522 40.56521739 28 42 C27.67 41.34 27.34 40.68 27 40 C26.7763932 42.9254644 26.7763932 42.9254644 28 45 C16.78 45 5.56 45 -6 45 C-6 33.12 -6 21.24 -6 9 C-5.34 9 -4.68 9 -4 9 C-4 8.34 -4 7.68 -4 7 C-2.35 7 -0.7 7 1 7 C1 6.34 1 5.68 1 5 C0.01 5 -0.98 5 -2 5 C-1 2 -1 2 0 0 Z " fill="none" transform="translate(129,72)"/>
<path d="M0 0 C18.15 0 36.3 0 55 0 C55 18.15 55 36.3 55 55 C36.85 55 18.7 55 0 55 C0 50.05 0 45.1 0 40 C-0.99 40.495 -0.99 40.495 -2 41 C-1.938125 42.258125 -1.87625 43.51625 -1.8125 44.8125 C-1.83478885 47.33113951 -1.86497803 48.72995606 -3 51 C-6.27967758 52.63983879 -9.37138689 52.17845638 -13 52 C-13.33 51.34 -13.66 50.68 -14 50 C-16.52733235 49.34444881 -16.52733235 49.34444881 -19 49 C-19.103125 48.360625 -19.20625 47.72125 -19.3125 47.0625 C-19.6528125 46.0415625 -19.6528125 46.0415625 -20 45 C-20.99 44.67 -21.98 44.34 -23 44 C-24.12353516 38.81445312 -24.12353516 38.81445312 -24 36 C-21.49501158 33.0529548 -20.04728323 32.09309184 -16.1875 31.75 C-15.465625 31.8325 -14.74375 31.915 -14 32 C-14 30.02 -14 28.04 -14 26 C-13.01 25.67 -12.02 25.34 -11 25 C-11 25.99 -11 26.98 -11 28 C-10.46375 27.7525 -9.9275 27.505 -9.375 27.25 C-7 27 -7 27 -1 31 C-0.67 20.77 -0.34 10.54 0 0 Z M2 1 C2 18.16 2 35.32 2 53 C19.16 53 36.32 53 54 53 C54 35.84 54 18.68 54 1 C36.84 1 19.68 1 2 1 Z M-21 37 C-21 37.66 -21 38.32 -21 39 C-16.74268432 39.40749675 -16.74268432 39.40749675 -13.125 37.5 C-12.75375 37.005 -12.3825 36.51 -12 36 C-13.04579619 34.73778302 -13.04579619 34.73778302 -15.375 34.8125 C-18.23444863 34.79951452 -18.23444863 34.79951452 -21 37 Z M-8 40 C-8 42.64 -8 45.28 -8 48 C-7.01 48 -6.02 48 -5 48 C-4.79029441 43.85906302 -4.79029441 43.85906302 -6 40 C-6.66 40 -7.32 40 -8 40 Z M-12 40 C-13.32 41.32 -14.64 42.64 -16 44 C-15.67 44.99 -15.34 45.98 -15 47 C-13.68 45.68 -12.36 44.36 -11 43 C-11.33 42.01 -11.66 41.02 -12 40 Z " fill="#FFFFFF" transform="translate(121,64)"/>
<path d="M0 0 C2.31 0 4.62 0 7 0 C10.96 6.93 14.92 13.86 19 21 C19.33 14.07 19.66 7.14 20 0 C21.98 0 23.96 0 26 0 C26 11.22 26 22.44 26 34 C19 34 19 34 17.46875 32.671875 C17.1490625 32.03765625 16.829375 31.4034375 16.5 30.75 C16.11457031 30.03328125 15.72914063 29.3165625 15.33203125 28.578125 C14.89246094 27.72734375 14.45289063 26.8765625 14 26 C12.73697946 23.82876972 11.46587678 21.66222446 10.1875 19.5 C9.135625 17.685 8.08375 15.87 7 14 C6.67 20.6 6.34 27.2 6 34 C4.02 34 2.04 34 0 34 C0 22.78 0 11.56 0 0 Z " fill="#5494C3" transform="translate(128,156)"/>
<path d="M0 0 C4.5478125 -0.1546875 4.5478125 -0.1546875 9.1875 -0.3125 C10.13391357 -0.35802002 11.08032715 -0.40354004 12.05541992 -0.45043945 C16.42248253 -0.52228901 18.43009862 -0.40986554 22.07421875 2.2109375 C24.65207828 5.94438923 24.7054968 8.14242147 24.5078125 12.55078125 C23.69741825 16.45937506 21.85938665 18.28358269 19 21 C22.465 27.435 22.465 27.435 26 34 C20.99771913 35.05311176 20.99771913 35.05311176 18 34 C14.96536725 30.22230764 11 25.01498142 11 20 C9.35 20 7.7 20 6 20 C6 24.62 6 29.24 6 34 C4.02 34 2.04 34 0 34 C0 22.78 0 11.56 0 0 Z M6 6 C6 8.64 6 11.28 6 14 C9.3 14 12.6 14 16 14 C17.19838209 11.67145537 17.19838209 11.67145537 18 9 C17.34 8.01 16.68 7.02 16 6 C13.56306689 5.63583953 13.56306689 5.63583953 10.875 5.8125 C9.96492188 5.83957031 9.05484375 5.86664063 8.1171875 5.89453125 C7.41851562 5.92933594 6.71984375 5.96414062 6 6 Z " fill="#5494C3" transform="translate(22,156)"/>
<path d="M0 0 C4.38282939 2.27569987 6.88120848 4.52699568 9 9 C9 9.66 9 10.32 9 11 C6.69 11 4.38 11 2 11 C1.67 10.01 1.34 9.02 1 8 C-1.64 8 -4.28 8 -7 8 C-9.05701803 11.3957123 -9.26969117 14.0617659 -9.25 18 C-9.25515625 19.03125 -9.2603125 20.0625 -9.265625 21.125 C-9.00499165 23.94597278 -8.45296344 25.60145718 -7 28 C-4.69 28 -2.38 28 0 28 C0.99 26.02 1.98 24.04 3 22 C1.02 22 -0.96 22 -3 22 C-3 20.02 -3 18.04 -3 16 C0.96 16 4.92 16 9 16 C9.41018846 28.44238342 9.41018846 28.44238342 6 33 C1.61266244 35.8916543 -1.79056007 36.63975578 -7 36 C-10.30600284 34.69499888 -13.23106578 33.21789002 -15.18041992 30.13037109 C-16.62233232 26.3823438 -16.32763114 22.59541189 -16.3125 18.625 C-16.32861328 17.78710938 -16.34472656 16.94921875 -16.36132812 16.0859375 C-16.36533863 10.98457404 -15.88329931 7.38970392 -13 3 C-8.67481024 0.05100698 -5.18037921 -0.6475474 0 0 Z " fill="#5494C3" transform="translate(271,155)"/>
<path d="M0 0 C-0.66 1.98 -1.32 3.96 -2 6 C-3.010625 5.649375 -4.02125 5.29875 -5.0625 4.9375 C-8.92337378 3.8107552 -12.05394586 4.19468283 -16 5 C-16.33 6.65 -16.66 8.3 -17 10 C-16.19175781 10.17015625 -15.38351563 10.3403125 -14.55078125 10.515625 C-3.13873401 13.10364054 -3.13873401 13.10364054 0 17 C1.1820194 20.98931548 1.2238038 23.27263765 0 27.25 C-2.62432462 30.85844635 -4.75185595 31.72555678 -9 33 C-14.18805069 33.56596917 -19.54630502 32.91119574 -24 30 C-24.9140625 28.078125 -24.9140625 28.078125 -25 26 C-23.5625 24.25 -23.5625 24.25 -22 23 C-20.80375 23.515625 -19.6075 24.03125 -18.375 24.5625 C-14.56287739 26.01409117 -12.00121473 26.10033405 -8 25 C-7.67 23.35 -7.34 21.7 -7 20 C-7.97582031 19.76925781 -8.95164063 19.53851563 -9.95703125 19.30078125 C-11.22933594 18.97464844 -12.50164062 18.64851563 -13.8125 18.3125 C-15.07707031 17.99925781 -16.34164062 17.68601563 -17.64453125 17.36328125 C-21 16 -21 16 -22.921875 13.57421875 C-24.36840691 10.12036177 -24.46398214 7.71185716 -24 4 C-18.23810364 -5.6031606 -8.97085824 -3.77720347 0 0 Z " fill="#5494C3" transform="translate(208,158)"/>
<path d="M0 0 C7.59 0 15.18 0 23 0 C23 1.98 23 3.96 23 6 C17.39 6 11.78 6 6 6 C6 8.64 6 11.28 6 14 C10.62 14 15.24 14 20 14 C20 15.98 20 17.96 20 20 C15.38 20 10.76 20 6 20 C6 22.64 6 25.28 6 28 C11.61 28 17.22 28 23 28 C23 29.98 23 31.96 23 34 C15.41 34 7.82 34 0 34 C0 22.78 0 11.56 0 0 Z " fill="#5494C3" transform="translate(227,156)"/>
<path d="M0 0 C7.59 0 15.18 0 23 0 C23 1.98 23 3.96 23 6 C17.39 6 11.78 6 6 6 C6 8.64 6 11.28 6 14 C10.62 14 15.24 14 20 14 C20 15.98 20 17.96 20 20 C15.38 20 10.76 20 6 20 C6 22.64 6 25.28 6 28 C11.61 28 17.22 28 23 28 C23 29.98 23 31.96 23 34 C15.41 34 7.82 34 0 34 C0 22.78 0 11.56 0 0 Z " fill="#5494C3" transform="translate(86,156)"/>
<path d="M0 0 C1.98 0 3.96 0 6 0 C6 4.62 6 9.24 6 14 C10.29 14 14.58 14 19 14 C19 9.38 19 4.76 19 0 C20.98 0 22.96 0 25 0 C25 11.22 25 22.44 25 34 C23.02 34 21.04 34 19 34 C19 29.38 19 24.76 19 20 C14.71 20 10.42 20 6 20 C6 24.62 6 29.24 6 34 C4.02 34 2.04 34 0 34 C0 22.78 0 11.56 0 0 Z " fill="#5494C3" transform="translate(53,156)"/>
<path d="M0 0 C17.16 0 34.32 0 52 0 C52 17.16 52 34.32 52 52 C51.67 52 51.34 52 51 52 C51 43.09 51 34.18 51 25 C49.02 25.99 49.02 25.99 47 27 C43.89448334 27 42.64738916 26.4606285 40 25 C40 25.66 40 26.32 40 27 C38.68 26.34 37.36 25.68 36 25 C36 24.34 36 23.68 36 23 C36.66 23 37.32 23 38 23 C37.34 21.68 36.68 20.36 36 19 C37.32 17.35 38.64 15.7 40 14 C38.02 15.32 36.04 16.64 34 18 C33.01 16.68 32.02 15.36 31 14 C31.66 14 32.32 14 33 14 C33 13.34 33 12.68 33 12 C32.34 12 31.68 12 31 12 C31.33 11.01 31.66 10.02 32 9 C32.99 9.66 33.98 10.32 35 11 C35.680625 10.2575 35.680625 10.2575 36.375 9.5 C38 8 38 8 40 8 C40 8.66 40 9.32 40 10 C40.66 10 41.32 10 42 10 C42 9.01 42 8.02 42 7 C41.34 7 40.68 7 40 7 C40 6.34 40 5.68 40 5 C40.66 5 41.32 5 42 5 C42 4.34 42 3.68 42 3 C42.66 3 43.32 3 44 3 C44 3.66 44 4.32 44 5 C44.99 5.33 45.98 5.66 47 6 C46.34 6.99 45.68 7.98 45 9 C45.66 9.66 46.32 10.32 47 11 C47.125 13.625 47.125 13.625 47 16 C47.66 16 48.32 16 49 16 C49 16.66 49 17.32 49 18 C48.34 18 47.68 18 47 18 C47 18.99 47 19.98 47 21 C47.66 21 48.32 21 49 21 C49 21.66 49 22.32 49 23 C49.66 23 50.32 23 51 23 C51 15.74 51 8.48 51 1 C47.555625 1.185625 44.11125 1.37125 40.5625 1.5625 C27.66715105 2.17523407 14.88121049 1.72456809 2 1 C2 1.66 2 2.32 2 3 C1.34 3 0.68 3 0 3 C0 2.01 0 1.02 0 0 Z " fill="#FFFFFF" transform="translate(123,65)"/>
<path d="M0 0 C1.98 0 3.96 0 6 0 C7.98 3.63 9.96 7.26 12 11 C12.33 7.37 12.66 3.74 13 0 C14.65 0 16.3 0 18 0 C18 7.59 18 15.18 18 23 C16.35 23 14.7 23 13 23 C11.234375 21.1015625 11.234375 21.1015625 9.75 18.625 C9.24984375 17.81289062 8.7496875 17.00078125 8.234375 16.1640625 C7.45391143 14.79578143 6.70445957 13.40891915 6 12 C5.67 15.63 5.34 19.26 5 23 C3.35 23 1.7 23 0 23 C0 15.41 0 7.82 0 0 Z " fill="#FFFFFF" transform="translate(31,126)"/>
<path d="M0 0 C1.98 0 3.96 0 6 0 C8.1171875 2.625 8.1171875 2.625 9.875 6 C10.47054687 7.11375 11.06609375 8.2275 11.6796875 9.375 C12.33324219 10.674375 12.33324219 10.674375 13 12 C13.33 8.04 13.66 4.08 14 0 C15.32 0 16.64 0 18 0 C18 7.59 18 15.18 18 23 C16.35 23 14.7 23 13 23 C10.98046875 20.375 10.98046875 20.375 9.1875 17 C8.58292969 15.88625 7.97835937 14.7725 7.35546875 13.625 C6.68451172 12.325625 6.68451172 12.325625 6 11 C5.67 14.96 5.34 18.92 5 23 C3.35 23 1.7 23 0 23 C0 15.41 0 7.82 0 0 Z " fill="#FFFFFF" transform="translate(147,126)"/>
<path d="M0 0 C1.65 0 3.3 0 5 0 C5.33 2.31 5.66 4.62 6 7 C6.27972656 6.4946875 6.55945313 5.989375 6.84765625 5.46875 C8.1110842 3.42126548 9.28545186 1.69332848 11 0 C14.8125 -0.4375 14.8125 -0.4375 18 0 C15.03 4.455 15.03 4.455 12 9 C14.31 13.62 16.62 18.24 19 23 C17.02 23 15.04 23 13 23 C11.3203125 21.25 11.3203125 21.25 10.125 19 C9.71507813 18.2575 9.30515625 17.515 8.8828125 16.75 C8.59148437 16.1725 8.30015625 15.595 8 15 C7.01 15.495 7.01 15.495 6 16 C5.59270772 18.32156597 5.25561323 20.6568787 5 23 C3.35 23 1.7 23 0 23 C0 15.41 0 7.82 0 0 Z " fill="#FFFFFF" transform="translate(91,126)"/>
<path d="M0 0 C5.28 0 10.56 0 16 0 C16 1.32 16 2.64 16 4 C12.37 4 8.74 4 5 4 C5 5.65 5 7.3 5 9 C8.3 9 11.6 9 15 9 C15 10.65 15 12.3 15 14 C11.7 14 8.4 14 5 14 C5 15.32 5 16.64 5 18 C8.63 18 12.26 18 16 18 C16 19.65 16 21.3 16 23 C10.72 23 5.44 23 0 23 C0 15.41 0 7.82 0 0 Z " fill="#FFFFFF" transform="translate(128,126)"/>
<path d="M0 0 C5.28 0 10.56 0 16 0 C16 1.32 16 2.64 16 4 C12.37 4 8.74 4 5 4 C5 5.65 5 7.3 5 9 C7.97 9 10.94 9 14 9 C14 10.65 14 12.3 14 14 C11.03 14 8.06 14 5 14 C5 15.32 5 16.64 5 18 C8.63 18 12.26 18 16 18 C16 19.65 16 21.3 16 23 C10.72 23 5.44 23 0 23 C0 15.41 0 7.82 0 0 Z " fill="#FFFFFF" transform="translate(72,126)"/>
<path d="M0 0 C0.66 0.33 1.32 0.66 2 1 C1.67 2.65 1.34 4.3 1 6 C-1.97 5.67 -4.94 5.34 -8 5 C-8.33 5.99 -8.66 6.98 -9 8 C-8.07767578 8.16435547 -8.07767578 8.16435547 -7.13671875 8.33203125 C-6.32847656 8.49058594 -5.52023438 8.64914063 -4.6875 8.8125 C-3.88699219 8.96332031 -3.08648437 9.11414063 -2.26171875 9.26953125 C0.28551472 10.09221287 1.38013892 10.88802923 3 13 C3.51924297 16.48634568 3.39852706 18.31163508 1.625 21.375 C-2.37214312 23.84942193 -6.41306906 23.63217317 -11 23 C-13.3125 21.9765625 -13.3125 21.9765625 -15 21 C-14.34 19.35 -13.68 17.7 -13 16 C-12.44570312 16.15597656 -11.89140625 16.31195313 -11.3203125 16.47265625 C-10.23363281 16.76462891 -10.23363281 16.76462891 -9.125 17.0625 C-8.40570313 17.25972656 -7.68640625 17.45695312 -6.9453125 17.66015625 C-4.92726407 18.21132607 -4.92726407 18.21132607 -3 17 C-3 16.34 -3 15.68 -3 15 C-3.62648437 14.81824219 -4.25296875 14.63648438 -4.8984375 14.44921875 C-5.71570313 14.19785156 -6.53296875 13.94648438 -7.375 13.6875 C-8.18710938 13.44386719 -8.99921875 13.20023438 -9.8359375 12.94921875 C-12 12 -12 12 -14 9 C-13.92878624 5.01202934 -13.85529048 2.82937259 -10.9375 0 C-6.84298731 -1.39387666 -4.23900139 -0.83390191 0 0 Z " fill="#FFFFFF" transform="translate(183,126)"/>
<path d="M0 0 C1.32 0 2.64 0 4 0 C4 2.97 4 5.94 4 9 C6.64 9 9.28 9 12 9 C12 6.03 12 3.06 12 0 C13.65 0 15.3 0 17 0 C17 7.59 17 15.18 17 23 C15.35 23 13.7 23 12 23 C12 20.03 12 17.06 12 14 C9.36 14 6.72 14 4 14 C4 16.97 4 19.94 4 23 C2.68 23 1.36 23 0 23 C0 15.41 0 7.82 0 0 Z " fill="#FFFFFF" transform="translate(208,126)"/>
<path d="M0 0 C0.66 0.33 1.32 0.66 2 1 C1.34 2.65 0.68 4.3 0 6 C-2.64 5.67 -5.28 5.34 -8 5 C-8.33 5.99 -8.66 6.98 -9 8 C-8.37351562 8.12117187 -7.74703125 8.24234375 -7.1015625 8.3671875 C-5.87566406 8.61855469 -5.87566406 8.61855469 -4.625 8.875 C-3.81289063 9.03742188 -3.00078125 9.19984375 -2.1640625 9.3671875 C0 10 0 10 2 12 C2.67276051 19.06398537 2.67276051 19.06398537 0.5625 22 C-3.24740656 23.48679281 -6.96164536 23.54745301 -11 23 C-13.28125 21.98046875 -13.28125 21.98046875 -15 21 C-14.67 19.68 -14.34 18.36 -14 17 C-11 17 -11 17 -7.9375 17.5625 C-5.07411457 18.27626304 -5.07411457 18.27626304 -3 17 C-3 16.34 -3 15.68 -3 15 C-3.71027344 14.80664062 -4.42054687 14.61328125 -5.15234375 14.4140625 C-6.07144531 14.15367187 -6.99054687 13.89328125 -7.9375 13.625 C-8.85402344 13.36976563 -9.77054688 13.11453125 -10.71484375 12.8515625 C-13 12 -13 12 -14 10 C-14.46117647 3.65882353 -14.46117647 3.65882353 -12.6875 1.125 C-8.34321469 -1.77119021 -4.87893974 -0.77443488 0 0 Z " fill="#FFFFFF" transform="translate(67,126)"/>
<path d="M0 0 C2.31 0 4.62 0 7 0 C7 11.22 7 22.44 7 34 C4.69 34 2.38 34 0 34 C0 22.78 0 11.56 0 0 Z " fill="#5494C3" transform="translate(213,156)"/>
<path d="M0 0 C2.31 0 4.62 0 7 0 C7 11.22 7 22.44 7 34 C4.69 34 2.38 34 0 34 C0 22.78 0 11.56 0 0 Z " fill="#5494C3" transform="translate(114,156)"/>
<path d="M0 0 C1.32 0 2.64 0 4 0 C4.06058594 1.05960937 4.12117187 2.11921875 4.18359375 3.2109375 C4.26800127 4.59897221 4.35264917 5.98699232 4.4375 7.375 C4.47681641 8.07367188 4.51613281 8.77234375 4.55664062 9.4921875 C4.74280134 13.37360492 4.74280134 13.37360492 6 17 C7.65 17 9.3 17 11 17 C11.33 11.39 11.66 5.78 12 0 C13.65 0 15.3 0 17 0 C17.13539281 2.89740622 17.23426829 5.78845621 17.3125 8.6875 C17.35439453 9.50412109 17.39628906 10.32074219 17.43945312 11.16210938 C17.52826546 15.54943883 17.43193482 17.41912214 14.734375 21.046875 C10.63085726 23.9779591 8.94463662 23.70637666 4 23 C1.76953125 21.57421875 1.76953125 21.57421875 0 19 C-0.48705459 15.73571405 -0.3763872 12.54092825 -0.25 9.25 C-0.23195312 8.36183594 -0.21390625 7.47367188 -0.1953125 6.55859375 C-0.14827374 4.37129152 -0.08257009 2.18620184 0 0 Z " fill="#FFFFFF" transform="translate(229,126)"/>
<path d="M0 0 C2.4375 2.375 2.4375 2.375 4 5 C4 5.99 4 6.98 4 8 C1.625 8.1875 1.625 8.1875 -1 8 C-1.66 7.01 -2.32 6.02 -3 5 C-4.32 5.33 -5.64 5.66 -7 6 C-7 9.63 -7 13.26 -7 17 C-5.35 17.33 -3.7 17.66 -2 18 C-1.67 17.01 -1.34 16.02 -1 15 C0.65 15 2.3 15 4 15 C2.375 20.75 2.375 20.75 -1 23 C-6.69469027 23.63274336 -6.69469027 23.63274336 -9 23 C-11.93402547 20.2512814 -12.91393711 18.59159767 -13.49609375 14.58984375 C-13.47675781 13.38457031 -13.45742187 12.17929688 -13.4375 10.9375 C-13.43621094 9.72964844 -13.43492187 8.52179688 -13.43359375 7.27734375 C-12.97697349 3.82595279 -12.45911115 2.412822 -10 0 C-6.16652698 -1.27782434 -3.91272241 -0.96101954 0 0 Z " fill="#FFFFFF" transform="translate(201,126)"/>
<path d="M0 0 C2.25245881 2.68841859 3.88213958 4.64641875 5 8 C5.66 8 6.32 8 7 8 C7.33 7.01 7.66 6.02 8 5 C8.33 5.99 8.66 6.98 9 8 C9.99 8 10.98 8 12 8 C12 8.66 12 9.32 12 10 C11.01 10.495 11.01 10.495 10 11 C11.32 11 12.64 11 14 11 C14.66 11.33 15.32 11.66 16 12 C16 11.34 16 10.68 16 10 C17.32 10.33 18.64 10.66 20 11 C20 9.68 20 8.36 20 7 C20.30404678 5.32774271 20.63128912 3.65919896 21 2 C22.98 2.66 24.96 3.32 27 4 C27 5.32 27 6.64 27 8 C27.66 8 28.32 8 29 8 C29 8.66 29 9.32 29 10 C28.34 10 27.68 10 27 10 C26.731875 10.598125 26.46375 11.19625 26.1875 11.8125 C24.89782325 14.18822032 24.19703581 15.41525286 22 17 C19.35003674 17.2172101 16.94923442 17.28351554 14.3125 17.1875 C13.61060547 17.17396484 12.90871094 17.16042969 12.18554688 17.14648438 C10.45670171 17.11120182 8.72825235 17.05739583 7 17 C7 16.34 7 15.68 7 15 C6.34 15 5.68 15 5 15 C5 14.01 5 13.02 5 12 C3.68 12.99 2.36 13.98 1 15 C0.31292445 12.50935112 0 10.62113708 0 8 C0.66 8 1.32 8 2 8 C1.01 6.824375 1.01 6.824375 0 5.625 C-2 3 -2 3 -2 1 C-1.34 0.67 -0.68 0.34 0 0 Z " fill="none" transform="translate(127,100)"/>
<path d="M0 0 C4.95 0 9.9 0 15 0 C14.08348034 5.49911797 13.3870369 7.47750863 10.4375 11.875 C9.79683594 12.84179688 9.15617187 13.80859375 8.49609375 14.8046875 C8.00238281 15.52914062 7.50867188 16.25359375 7 17 C9.64 17.33 12.28 17.66 15 18 C15 19.65 15 21.3 15 23 C10.05 23 5.1 23 0 23 C0.88868523 16.77920339 1.28849549 14.88421573 4.5625 10.0625 C5.20316406 9.10472656 5.84382813 8.14695313 6.50390625 7.16015625 C7.24447266 6.09087891 7.24447266 6.09087891 8 5 C5.36 4.67 2.72 4.34 0 4 C0 2.68 0 1.36 0 0 Z " fill="#FFFFFF" transform="translate(265,126)"/>
<path d="M0 0 C5.61 0 11.22 0 17 0 C17 1.32 17 2.64 17 4 C15.02 4 13.04 4 11 4 C11 10.27 11 16.54 11 23 C9.35 23 7.7 23 6 23 C6 16.73 6 10.46 6 4 C4.02 4 2.04 4 0 4 C0 2.68 0 1.36 0 0 Z " fill="#FFFFFF" transform="translate(247,126)"/>
<path d="M0 0 C5.61 0 11.22 0 17 0 C17 1.32 17 2.64 17 4 C14.69 4 12.38 4 10 4 C10 10.27 10 16.54 10 23 C8.68 23 7.36 23 6 23 C6 16.73 6 10.46 6 4 C4.02 4 2.04 4 0 4 C0 2.68 0 1.36 0 0 Z " fill="#FFFFFF" transform="translate(110,126)"/>
<path d="M0 0 C1.65 0 3.3 0 5 0 C5 7.59 5 15.18 5 23 C3.35 23 1.7 23 0 23 C0 15.41 0 7.82 0 0 Z " fill="#FFFFFF" transform="translate(22,126)"/>
<path d="M0 0 C5.61 0 11.22 0 17 0 C17 1.98 17 3.96 17 6 C11.39 6 5.78 6 0 6 C0 4.02 0 2.04 0 0 Z " fill="#5494C3" transform="translate(161,175)"/>
<path d="M0 0 C6.75 0.875 6.75 0.875 9 2 C9 2.66 9 3.32 9 4 C7.03852126 5.38938077 5.03833424 6.7260411 3 8 C2.01 7.01 1.02 6.02 0 5 C0 5.99 0 6.98 0 8 C-1.32 7.67 -2.64 7.34 -4 7 C-4.33 7.66 -4.66 8.32 -5 9 C-5 5.47967572 -4.29648649 4.5614657 -2 2 C-1.34 2 -0.68 2 0 2 C0 1.34 0 0.68 0 0 Z " fill="none" transform="translate(145,66)"/>
<path d="M0 0 C2 0.3125 2 0.3125 4 1 C4.33 1.66 4.66 2.32 5 3 C5.680625 2.2575 5.680625 2.2575 6.375 1.5 C8 0 8 0 10 0 C8.60667426 3.36720387 7.0210714 4.9859524 4 7 C2.35 5.02 0.7 3.04 -1 1 C-0.67 0.67 -0.34 0.34 0 0 Z " fill="none" transform="translate(144,70)"/>
<path d="M0 0 C1.98 0.99 1.98 0.99 4 2 C4 2.66 4 3.32 4 4 C4.66 4 5.32 4 6 4 C6.66 5.65 7.32 7.3 8 9 C5.69 9 3.38 9 1 9 C1.33 8.01 1.66 7.02 2 6 C2 3.53721199 1.14547137 2.14775881 0 0 Z " fill="none" transform="translate(166,108)"/>
<path d="M0 0 C0.33 0.66 0.66 1.32 1 2 C1.66 2 2.32 2 3 2 C3.66 3.32 4.32 4.64 5 6 C4.01 7.485 4.01 7.485 3 9 C2.34 9 1.68 9 1 9 C-0.4606285 6.35261084 -1 5.10551666 -1 2 C-0.67 1.34 -0.34 0.68 0 0 Z " fill="none" transform="translate(131,99)"/>
<path d="M0 0 C0.99 0.33 1.98 0.66 3 1 C3.99 0.67 4.98 0.34 6 0 C6 0.66 6 1.32 6 2 C6.66 2 7.32 2 8 2 C8 2.99 8 3.98 8 5 C7.34 5 6.68 5 6 5 C6 4.34 6 3.68 6 3 C4.02 3.99 4.02 3.99 2 5 C1.01 3.68 0.02 2.36 -1 1 C-0.67 0.67 -0.34 0.34 0 0 Z " fill="none" transform="translate(166,101)"/>
<path d="M0 0 C1.32 0.66 2.64 1.32 4 2 C4 2.99 4 3.98 4 5 C3.01 5.66 2.02 6.32 1 7 C-0.5 5.625 -0.5 5.625 -2 4 C-2 3.34 -2 2.68 -2 2 C-1.34 2 -0.68 2 0 2 C0 1.34 0 0.68 0 0 Z " fill="none" transform="translate(154,90)"/>
<path d="M0 0 C1.98 0.66 3.96 1.32 6 2 C6 2.66 6 3.32 6 4 C4.03852126 5.38938077 2.03833424 6.7260411 0 8 C0 5.36 0 2.72 0 0 Z " fill="none" transform="translate(148,66)"/>
<path d="M0 0 C1.98 0 3.96 0 6 0 C6 1.98 6 3.96 6 6 C5.34 6 4.68 6 4 6 C4 5.34 4 4.68 4 4 C3.34 4 2.68 4 2 4 C2 3.34 2 2.68 2 2 C1.34 2 0.68 2 0 2 C0 1.34 0 0.68 0 0 Z " fill="none" transform="translate(168,66)"/>
<path d="M0 0 C0.66 0 1.32 0 2 0 C2 0.66 2 1.32 2 2 C2.99 2.33 3.98 2.66 5 3 C3.35 4.32 1.7 5.64 0 7 C0 6.01 0 5.02 0 4 C-0.66 4 -1.32 4 -2 4 C-2 3.34 -2 2.68 -2 2 C-1.34 2 -0.68 2 0 2 C0 1.34 0 0.68 0 0 Z " fill="none" transform="translate(165,68)"/>
<path d="M0 0 C0.66 0 1.32 0 2 0 C2 0.66 2 1.32 2 2 C2.99 2.33 3.98 2.66 5 3 C5 3.33 5 3.66 5 4 C2.36 4 -0.28 4 -3 4 C-1.625 2 -1.625 2 0 0 Z " fill="none" transform="translate(161,113)"/>
<path d="M0 0 C1.98 0.99 1.98 0.99 4 2 C4 3.32 4 4.64 4 6 C2.68 6 1.36 6 0 6 C0 5.34 0 4.68 0 4 C0.66 4 1.32 4 2 4 C2 3.34 2 2.68 2 2 C1.34 2 0.68 2 0 2 C0 1.34 0 0.68 0 0 Z " fill="none" transform="translate(163,93)"/>
<path d="M0 0 C3.36720387 1.39332574 4.9859524 2.9789286 7 6 C6.01 6.33 5.02 6.66 4 7 C0 2.25 0 2.25 0 0 Z " fill="none" transform="translate(163,81)"/>
<path d="M0 0 C0.598125 0.165 1.19625 0.33 1.8125 0.5 C4.11344336 1.1114124 4.11344336 1.1114124 7 1 C5.68 2.32 4.36 3.64 3 5 C1.5 3.625 1.5 3.625 0 2 C0 1.34 0 0.68 0 0 Z " fill="none" transform="translate(134,101)"/>
<path d="M0 0 C3.36720387 1.39332574 4.9859524 2.9789286 7 6 C4 6 4 6 1.8125 4.125 C0 2 0 2 0 0 Z " fill="none" transform="translate(134,79)"/>
<path d="M0 0 C1.98 0.99 1.98 0.99 4 2 C4 2.66 4 3.32 4 4 C3.34 4 2.68 4 2 4 C2 4.66 2 5.32 2 6 C1.34 6 0.68 6 0 6 C0 4.02 0 2.04 0 0 Z " fill="none" transform="translate(123,93)"/>
</svg>
